<svg width="123" height="30" viewBox="0 0 123 30" fill="none" xmlns="http://www.w3.org/2000/svg">
<g clip-path="url(#clip0_501_1073)">
<path d="M15.9427 15L19.6557 1.14279C19.8837 0.291956 20.7624 -0.220074 21.586 0.0924665C23.1952 0.703184 24.6978 1.57071 26.0313 2.65899C26.7138 3.21593 26.7097 4.23296 26.0868 4.85582L15.9427 15Z" fill="black"/>
<path d="M15.9427 15L29.7987 11.2872C30.6491 11.0594 31.5314 11.5635 31.6742 12.4322C31.9604 14.171 31.9502 15.9027 31.6766 17.5701C31.5344 18.4381 30.6524 18.9415 29.8027 18.7138L15.9427 15Z" fill="black"/>
<path d="M15.9427 15L26.0889 25.1462C26.711 25.7683 26.7161 26.7838 26.0355 27.3411C24.7282 28.4115 23.2336 29.2862 21.5847 29.9079C20.7611 30.2186 19.8832 29.7063 19.6554 28.856L15.9427 15Z" fill="black"/>
<path d="M15.9427 15L12.2297 28.8572C12.0017 29.708 11.1229 30.2201 10.2994 29.9075C8.69014 29.2968 7.18754 28.4292 5.85404 27.341C5.1716 26.784 5.17565 25.767 5.79851 25.1441L15.9427 15Z" fill="black"/>
<path d="M15.9427 15L2.08662 18.7127C1.23634 18.9405 0.353804 18.4364 0.210959 17.5678C-0.0750095 15.8289 -0.0648005 14.0972 0.208553 12.4299C0.350876 11.5618 1.2329 11.0585 2.08261 11.2862L15.9427 15Z" fill="black"/>
<path d="M12.23 1.14392L15.9427 15L5.79641 4.85369C5.17436 4.23167 5.16923 3.21617 5.84987 2.65887C7.15712 1.58848 8.65171 0.713783 10.3006 0.0919991C11.1243 -0.218594 12.0021 0.293641 12.23 1.14392Z" fill="black"/>
<path d="M39.8548 4.49999H44.7049L48.181 19.0913H48.3553L52.1902 4.49999H56.3431L60.1678 19.122H60.3523L63.8284 4.49999H68.6785L62.6698 25.5H58.3426L54.3436 11.77H54.1795L50.1907 25.5H45.8635L39.8548 4.49999Z" fill="black"/>
<path fill-rule="evenodd" clip-rule="evenodd" d="M66.9356 25.5H71.6936L73.2514 20.7114H80.8335L82.3883 25.5H87.146L79.907 4.49999H74.1851L66.9356 25.5ZM79.7083 17.2456L77.1281 9.29881H76.964L74.3788 17.2456H79.7083Z" fill="black"/>
<path fill-rule="evenodd" clip-rule="evenodd" d="M88.8075 4.49999H97.0925C98.6786 4.49999 100.032 4.78367 101.153 5.35106C102.281 5.91161 103.139 6.70799 103.727 7.74023C104.322 8.76562 104.619 9.97216 104.619 11.3598C104.619 12.7544 104.318 13.9541 103.717 14.959C103.115 15.957 102.244 16.7226 101.102 17.2558C101.039 17.2852 100.976 17.3138 100.912 17.3416L105.367 25.5H100.466L96.4885 18.0556H93.2475V25.5H88.8075V4.49999ZM96.2621 14.4873H93.2475V8.12987H96.2414C97.0961 8.12987 97.8036 8.25635 98.3643 8.50928C98.9315 8.75536 99.3518 9.11767 99.6254 9.59617C99.9056 10.0747 100.046 10.6626 100.046 11.3598C100.046 12.0503 99.9056 12.6279 99.6254 13.0928C99.3518 13.5576 98.9349 13.9062 98.3744 14.1386C97.8138 14.3711 97.1097 14.4873 96.2621 14.4873Z" fill="black"/>
<path fill-rule="evenodd" clip-rule="evenodd" d="M115.175 4.49999H106.89V25.5H111.33V18.6914H115.063C116.676 18.6914 118.05 18.394 119.185 17.7993C120.326 17.2046 121.198 16.374 121.799 15.3076C122.401 14.2412 122.702 13.0107 122.702 11.6162C122.702 10.2217 122.405 8.99119 121.81 7.92479C121.222 6.85154 120.367 6.01415 119.246 5.41259C118.125 4.80419 116.768 4.49999 115.175 4.49999ZM111.33 15.1333H114.345C115.199 15.1333 115.904 14.9863 116.457 14.6924C117.018 14.3916 117.435 13.978 117.708 13.4516C117.989 12.9184 118.129 12.3066 118.129 11.6162C118.129 10.9189 117.989 10.3105 117.708 9.79099C117.435 9.26464 117.018 8.8579 116.457 8.57077C115.897 8.27684 115.186 8.12987 114.324 8.12987H111.33V15.1333Z" fill="black"/>
</g>
<defs>
<clipPath id="clip0_501_1073">
<rect width="122.702" height="30" fill="white"/>
</clipPath>
</defs>
</svg>
